<?xml version="1.0"?>
<svg xmlns="http://www.w3.org/2000/svg" xmlns:xlink="http://www.w3.org/1999/xlink" xmlns:svgjs="http://svgjs.com/svgjs" version="1.1" width="512" height="512" x="0" y="0" viewBox="0 0 256 256" style="enable-background:new 0 0 512 512" xml:space="preserve" class=""><g><path xmlns="http://www.w3.org/2000/svg" d="m75.766 180.234c-3.03-3.03-3.03-7.942 0-10.972l162.99-162.99c3.03-3.03 7.943-3.03 10.972 0 3.03 3.03 3.03 7.942 0 10.972l-162.989 162.99c-3.03 3.029-7.943 3.029-10.973 0z" fill="#ff4397" data-original="#ff4397" style="" class=""/><path xmlns="http://www.w3.org/2000/svg" d="m81.252 184.506c-2.606 0-5.057-1.015-6.899-2.858-1.844-1.843-2.858-4.293-2.858-6.9s1.015-5.058 2.858-6.9l162.989-162.99c1.843-1.843 4.293-2.858 6.9-2.858 2.606 0 5.057 1.015 6.899 2.858 1.844 1.843 2.858 4.293 2.858 6.9s-1.015 5.058-2.858 6.901l-162.989 162.988c-1.842 1.844-4.293 2.859-6.9 2.859zm162.99-178.506c-1.539 0-2.984.599-4.072 1.686l-162.989 162.99c-1.088 1.088-1.687 2.534-1.687 4.072s.599 2.984 1.687 4.071c1.088 1.087 2.533 1.687 4.071 1.687 1.539 0 2.984-.599 4.072-1.687l162.989-162.988c1.088-1.088 1.687-2.534 1.687-4.072s-.599-2.984-1.687-4.072c-1.087-1.088-2.533-1.687-4.071-1.687z" fill="#690589" data-original="#690589" style="" class=""/><path xmlns="http://www.w3.org/2000/svg" d="m39.932 237.317-21.249-21.249c-3.359-3.359-8.805-3.359-12.164 0-3.359 3.359-3.359 8.805 0 12.164l21.249 21.249c3.359 3.359 8.805 3.359 12.164 0 3.359-3.359 3.359-8.805 0-12.164z" fill="#7bac51" data-original="#7bac51" style="" class=""/><path xmlns="http://www.w3.org/2000/svg" d="m12.117 221.665c3.359-3.359 8.805-3.359 12.164 0l-5.597-5.598c-3.359-3.359-8.805-3.359-12.164 0s-3.359 8.805 0 12.164l5.598 5.598c-3.36-3.359-3.36-8.805-.001-12.164z" fill="#99ca6f" data-original="#99ca6f" style="" class=""/><path xmlns="http://www.w3.org/2000/svg" d="m34.335 243.883c-3.359 3.359-8.805 3.359-12.164 0l5.597 5.598c3.359 3.359 8.805 3.359 12.164 0s3.359-8.805 0-12.164l-5.597-5.598c3.359 3.359 3.359 8.805 0 12.164z" fill="#5d8e33" data-original="#5d8e33" style="" class=""/><path xmlns="http://www.w3.org/2000/svg" d="m33.851 254c-2.832 0-5.494-1.103-7.496-3.105l-21.25-21.249c-2.002-2.002-3.105-4.665-3.105-7.496 0-2.832 1.103-5.494 3.105-7.497 2.002-2.002 4.664-3.105 7.496-3.105 2.831 0 5.494 1.103 7.496 3.105l21.249 21.249c4.133 4.134 4.133 10.859 0 14.992-2.001 2.003-4.664 3.106-7.495 3.106zm-21.249-38.452c-1.764 0-3.421.687-4.668 1.934s-1.934 2.905-1.934 4.668.687 3.421 1.934 4.668l21.249 21.249c1.247 1.247 2.904 1.934 4.668 1.934 1.763 0 3.421-.687 4.668-1.934 2.573-2.574 2.573-6.762 0-9.336l-21.249-21.249c-1.248-1.247-2.906-1.934-4.668-1.934z" fill="#690589" data-original="#690589" style="" class=""/><path xmlns="http://www.w3.org/2000/svg" d="m99.042 187.833-30.875-30.875c-2.791-2.791-7.317-2.791-10.108 0-2.791 2.791-2.791 7.317 0 10.108l30.875 30.875c2.791 2.791 7.317 2.791 10.108 0 2.792-2.791 2.792-7.317 0-10.108z" fill="#7bac51" data-original="#7bac51" style="" class=""/><path xmlns="http://www.w3.org/2000/svg" d="m63.47 162.369c2.791-2.791 7.317-2.791 10.108 0l-5.411-5.411c-2.791-2.791-7.317-2.791-10.108 0s-2.791 7.317 0 10.108l5.411 5.411c-2.791-2.791-2.791-7.317 0-10.108z" fill="#99ca6f" data-original="#99ca6f" style="" class=""/><path xmlns="http://www.w3.org/2000/svg" d="m93.631 192.53c-2.791 2.791-7.317 2.791-10.108 0l5.411 5.411c2.791 2.791 7.317 2.791 10.108 0s2.791-7.317 0-10.108l-5.411-5.411c2.792 2.791 2.792 7.316 0 10.108z" fill="#5d8e33" data-original="#5d8e33" style="" class=""/><path xmlns="http://www.w3.org/2000/svg" d="m20.156 190.765h62.493v27.666h-62.493z" fill="#7bac51" transform="matrix(.707 -.707 .707 .707 -129.617 96.272)" data-original="#7bac51" style="" class=""/><path xmlns="http://www.w3.org/2000/svg" d="m12.7 193.853h62.492v6.578h-62.492z" fill="#99ca6f" transform="matrix(.707 -.707 .707 .707 -126.529 88.817)" data-original="#99ca6f" style="" class=""/><path xmlns="http://www.w3.org/2000/svg" d="m27.612 208.765h62.493v6.578h-62.493z" fill="#5d8e33" transform="matrix(.707 -.707 .707 .707 -132.705 103.728)" data-original="#5d8e33" style="" class=""/><g xmlns="http://www.w3.org/2000/svg" fill="#690589"><path d="m39.089 238.474c-.53 0-1.039-.211-1.414-.586l-19.562-19.563c-.781-.781-.781-2.047 0-2.828l44.188-44.189c.781-.781 2.047-.781 2.828 0l19.563 19.563c.375.375.586.884.586 1.414s-.211 1.039-.586 1.414l-44.189 44.189c-.375.375-.884.586-1.414.586zm-16.735-21.563 16.734 16.734 41.361-41.36-16.734-16.735z" fill="#690589" data-original="#690589" style="" class=""/><path d="m49.892 199.367c-.512 0-1.023-.195-1.414-.586-.781-.781-.781-2.047 0-2.828l9.118-9.117c.781-.781 2.047-.781 2.828 0s.781 2.047 0 2.828l-9.118 9.117c-.391.391-.903.586-1.414.586z" fill="#690589" data-original="#690589" style="" class=""/><path d="m93.988 202.035c-2.443 0-4.74-.952-6.468-2.68l-30.874-30.875c-1.729-1.728-2.68-4.025-2.68-6.468s.951-4.741 2.68-6.469c3.567-3.565 9.37-3.566 12.936 0l30.875 30.875c1.729 1.728 2.68 4.024 2.68 6.468s-.951 4.741-2.68 6.469c-1.728 1.728-4.025 2.68-6.469 2.68zm-30.875-45.168c-1.318 0-2.636.501-3.64 1.505-.973.973-1.508 2.265-1.508 3.64s.535 2.667 1.508 3.64l30.875 30.875c.973.972 2.265 1.508 3.64 1.508s2.667-.536 3.64-1.508c.973-.973 1.508-2.265 1.508-3.64s-.535-2.667-1.508-3.639l-30.875-30.875c-1.004-1.004-2.321-1.506-3.64-1.506z" fill="#690589" data-original="#690589" style="" class=""/><path d="m48.139 227.921c-.512 0-1.023-.195-1.414-.586l-18.06-18.06c-.781-.781-.781-2.047 0-2.828s2.047-.781 2.828 0l18.06 18.06c.781.781.781 2.047 0 2.828-.391.391-.903.586-1.414.586z" fill="#690589" data-original="#690589" style="" class=""/></g><path xmlns="http://www.w3.org/2000/svg" d="m180.234 180.234c-3.03 3.03-7.942 3.03-10.972 0l-162.99-162.99c-3.03-3.03-3.03-7.943 0-10.972 3.03-3.03 7.942-3.03 10.972 0l162.989 162.989c3.03 3.03 3.03 7.943.001 10.973z" fill="#fcc24c" data-original="#fcc24c" style="" class=""/><path xmlns="http://www.w3.org/2000/svg" d="m174.748 184.506c-2.607 0-5.058-1.015-6.9-2.858l-162.99-162.989c-1.843-1.843-2.858-4.294-2.858-6.901s1.015-5.058 2.858-6.901c1.843-1.842 4.293-2.857 6.9-2.857s5.058 1.015 6.9 2.858l162.989 162.99c1.844 1.842 2.858 4.293 2.858 6.9 0 2.606-1.015 5.057-2.858 6.9-1.842 1.843-4.293 2.858-6.899 2.858zm-162.99-178.506c-1.538 0-2.984.599-4.071 1.686-1.088 1.088-1.687 2.534-1.687 4.072s.599 2.984 1.687 4.072l162.989 162.989c1.088 1.087 2.533 1.687 4.072 1.687 1.538 0 2.983-.599 4.071-1.687 1.088-1.087 1.687-2.533 1.687-4.071s-.599-2.984-1.687-4.071l-162.989-162.991c-1.088-1.087-2.533-1.686-4.072-1.686z" fill="#690589" data-original="#690589" style="" class=""/><path xmlns="http://www.w3.org/2000/svg" d="m237.317 216.068-21.249 21.249c-3.359 3.359-3.359 8.805 0 12.164 3.359 3.359 8.805 3.359 12.164 0l21.249-21.249c3.359-3.359 3.359-8.805 0-12.164-3.359-3.359-8.805-3.359-12.164 0z" fill="#7bac51" data-original="#7bac51" style="" class=""/><path xmlns="http://www.w3.org/2000/svg" d="m221.665 243.883c-3.359-3.359-3.359-8.805 0-12.164l-5.598 5.598c-3.359 3.359-3.359 8.805 0 12.164s8.805 3.359 12.164 0l5.598-5.598c-3.359 3.359-8.805 3.359-12.164 0z" fill="#99ca6f" data-original="#99ca6f" style="" class=""/><path xmlns="http://www.w3.org/2000/svg" d="m243.883 221.665c3.359 3.359 3.359 8.805 0 12.164l5.598-5.598c3.359-3.359 3.359-8.805 0-12.164s-8.805-3.359-12.164 0l-5.598 5.598c3.359-3.359 8.805-3.359 12.164 0z" fill="#5d8e33" data-original="#5d8e33" style="" class=""/><path xmlns="http://www.w3.org/2000/svg" d="m222.149 254c-2.831 0-5.494-1.103-7.496-3.105-4.133-4.133-4.133-10.858 0-14.992l21.249-21.249c2.002-2.002 4.665-3.105 7.496-3.105 2.832 0 5.494 1.103 7.496 3.105 2.003 2.002 3.105 4.664 3.105 7.496s-1.103 5.494-3.105 7.496l-21.249 21.249c-2.001 2.002-4.664 3.105-7.496 3.105zm21.249-38.452c-1.763 0-3.421.687-4.668 1.934l-21.249 21.249c-2.573 2.574-2.573 6.762 0 9.336 1.247 1.247 2.905 1.934 4.668 1.934 1.764 0 3.421-.687 4.668-1.934l21.249-21.249c1.247-1.247 1.934-2.905 1.934-4.668s-.687-3.421-1.934-4.667c-1.247-1.248-2.904-1.935-4.668-1.935zm-6.082.52h.01z" fill="#690589" data-original="#690589" style="" class=""/><path xmlns="http://www.w3.org/2000/svg" d="m187.833 156.958-30.875 30.875c-2.791 2.791-2.791 7.317 0 10.108 2.791 2.791 7.317 2.791 10.108 0l30.875-30.875c2.791-2.791 2.791-7.317 0-10.108-2.791-2.792-7.317-2.792-10.108 0z" fill="#7bac51" data-original="#7bac51" style="" class=""/><path xmlns="http://www.w3.org/2000/svg" d="m162.369 192.53c-2.791-2.791-2.791-7.317 0-10.108l-5.411 5.411c-2.791 2.791-2.791 7.317 0 10.108s7.317 2.791 10.108 0l5.411-5.411c-2.791 2.791-7.317 2.791-10.108 0z" fill="#99ca6f" data-original="#99ca6f" style="" class=""/><path xmlns="http://www.w3.org/2000/svg" d="m192.53 162.369c2.791 2.791 2.791 7.317 0 10.108l5.411-5.411c2.791-2.791 2.791-7.317 0-10.108s-7.317-2.791-10.108 0l-5.411 5.411c2.791-2.792 7.316-2.792 10.108 0z" fill="#5d8e33" data-original="#5d8e33" style="" class=""/><path xmlns="http://www.w3.org/2000/svg" d="m190.765 173.351h27.666v62.493h-27.666z" fill="#7bac51" transform="matrix(.707 -.707 .707 .707 -84.747 204.598)" data-original="#7bac51" style="" class=""/><path xmlns="http://www.w3.org/2000/svg" d="m193.853 180.807h6.578v62.492h-6.578z" fill="#99ca6f" transform="matrix(.707 -.707 .707 .707 -92.203 201.51)" data-original="#99ca6f" style="" class=""/><path xmlns="http://www.w3.org/2000/svg" d="m208.765 165.896h6.578v62.493h-6.578z" fill="#5d8e33" transform="matrix(.707 -.707 .707 .707 -77.291 207.686)" data-original="#5d8e33" style="" class=""/><path xmlns="http://www.w3.org/2000/svg" d="m216.911 238.474c-.53 0-1.039-.211-1.414-.586l-44.189-44.189c-.375-.375-.586-.884-.586-1.414s.211-1.039.586-1.414l19.563-19.563c.781-.781 2.047-.781 2.828 0l44.188 44.189c.781.781.781 2.047 0 2.828l-19.562 19.563c-.375.375-.884.586-1.414.586zm-41.361-46.189 41.361 41.36 16.734-16.734-41.36-41.36z" fill="#690589" data-original="#690589" style="" class=""/><path xmlns="http://www.w3.org/2000/svg" d="m162.012 202.035c-2.443 0-4.74-.952-6.468-2.68-1.729-1.728-2.68-4.025-2.68-6.468s.951-4.741 2.68-6.468l30.875-30.875c3.566-3.566 9.369-3.566 12.936 0 1.729 1.728 2.68 4.025 2.68 6.468s-.951 4.741-2.68 6.469l-30.875 30.875c-1.728 1.727-4.025 2.679-6.468 2.679zm27.235-43.663-30.875 30.875c-.973.973-1.508 2.265-1.508 3.64s.535 2.667 1.508 3.64 2.265 1.508 3.64 1.508 2.667-.536 3.64-1.508l30.875-30.875c.973-.973 1.508-2.265 1.508-3.64s-.535-2.667-1.508-3.64c-2.008-2.008-5.272-2.007-7.28 0z" fill="#690589" data-original="#690589" style="" class=""/><path xmlns="http://www.w3.org/2000/svg" d="m207.861 227.921c-.512 0-1.023-.195-1.414-.586-.781-.781-.781-2.047 0-2.828l18.06-18.06c.781-.781 2.047-.781 2.828 0s.781 2.047 0 2.828l-18.06 18.06c-.39.391-.902.586-1.414.586z" fill="#690589" data-original="#690589" style="" class=""/></g></svg>
